<svg xmlns="http://www.w3.org/2000/svg" width="2500" height="2500" viewBox="0 0 192.756 192.756"><g fill-rule="evenodd" clip-rule="evenodd"><path fill="#fff" fill-opacity="0" d="M0 0h192.756v192.756H0V0z"/><path d="M2.834 83.655V109.1h17.288V83.655H2.834zm8.996 21.935a5.804 5.804 0 0 1-1.81.297H6.427V86.816h3.593a5.78 5.78 0 0 1 1.81.297c3.106 1.053 5.402 4.781 5.402 9.238 0 4.43-2.296 8.158-5.402 9.239zM20.987 83.655V109.1h17.261V83.655H20.987zm13.668 22.285h-3.593a5.916 5.916 0 0 1-1.81-.297c-3.079-1.054-5.375-4.781-5.375-9.238 0-4.43 2.296-8.185 5.375-9.238a5.906 5.906 0 0 1 1.81-.297h3.593v19.07zM55.562 90.651h-5.268v11.427h5.619c2.89 0 3.809-1.486 3.809-4.593v-2.404c.001-3.241-1.296-4.43-4.16-4.43zm1.324 6.834c0 1.188-.378 1.945-1.405 1.945H53.05v-6.132h2.431c.972 0 1.405.297 1.405 1.783v2.404zM64.99 90.543c-2.81 0-4.781.675-4.781 4.214v3.214c0 3.539 1.972 4.214 4.781 4.214s4.781-.675 4.781-4.214v-3.214c0-3.538-1.972-4.214-4.781-4.214zm1.945 7.104c0 1.702-.513 1.864-1.945 1.864s-1.918-.162-1.945-1.864v-2.593c.027-1.675.514-1.864 1.945-1.864s1.945.189 1.945 1.864v2.593zM73.255 99.431h4.323v2.647H70.5V90.651h2.755v8.78zM85.141 96.324v-.108c1.35-.243 1.621-1.188 1.621-2.647 0-2.512-1.216-2.917-3.269-2.917h-5.456v11.427h5.51c2.188 0 3.376-.379 3.376-3.188 0-1.432-.242-2.459-1.782-2.567zm-4.322-3.187h2.323c.756.027.864.297.864.972 0 .919-.243 1.108-1.216 1.108h-1.972v-2.08h.001zm2.08 6.456h-2.08v-2.27h2.134c.892 0 1.216.162 1.216 1.107-.001.92-.379 1.163-1.27 1.163zM93.083 98.08v3.998h-2.756V98.08l-3.674-7.429h3.161l1.945 4.404 1.89-4.404h3.187l-3.753 7.429zM106.967 95.163c3.053.243 3.809.675 3.809 3.295 0 1.892.08 3.755-4.484 3.755-2.646 0-4.402-.054-4.402-3.809h2.674c0 1.188.377 1.297 1.729 1.297 1.297 0 1.729-.082 1.729-1.054 0-.973-.162-.973-1.459-1.054l-.594-.054c-2.566-.189-4.051-.189-4.051-3.458 0-3.295 1.674-3.484 4.375-3.484 2.27 0 4.188.027 4.188 3.188v.486h-2.648c0-1.189-.432-1.189-1.539-1.189-1.486 0-1.621.351-1.621.973 0 .918.406.945 1.135 1.026l1.159.082zM120.527 90.679v7.617c0 3.053-1.297 3.917-4.35 3.917-4.133 0-4.592-1.161-4.592-3.917v-7.617h2.781v7.563c0 1.297.648 1.323 1.811 1.323 1.188 0 1.594-.108 1.594-1.458v-7.429h2.756v.001zM128.549 97.783v-.108c1.973-.513 1.973-1.62 1.973-3.539 0-2.836-1.189-3.404-3.566-3.458h-5.348v11.453h2.781V99.08h2.135c.838 0 1.162.594 1.135 1.431v1.621h2.754v-2.323c-.001-1.297-.729-1.972-1.864-2.026zm-2.026-1.351h-2.135v-3.106h2.135c.918 0 1.135.297 1.135 1.324 0 1.296.055 1.782-1.135 1.782zM138.246 97.783v-.108c1.973-.513 1.973-1.62 1.973-3.539 0-2.836-1.189-3.404-3.566-3.458h-5.32v11.453h2.754V99.08h2.135c.838 0 1.162.594 1.135 1.431v1.621h2.754v-2.323c-.002-1.297-.73-1.972-1.865-2.026zm-2.025-1.351h-2.135v-3.106h2.135c.918 0 1.162.297 1.162 1.324 0 1.296.025 1.782-1.162 1.782zM145.486 90.598c-2.811 0-4.809.648-4.809 4.187v3.241c0 3.512 1.998 4.188 4.809 4.188 2.809 0 4.781-.676 4.781-4.188v-3.241c.001-3.539-1.972-4.187-4.781-4.187zm1.946 7.077c0 1.702-.514 1.891-1.945 1.891s-1.918-.188-1.945-1.891v-2.566c.027-1.702.514-1.864 1.945-1.864s1.945.162 1.945 1.864v2.566zM159.965 90.679v7.617c0 3.053-1.297 3.917-4.322 3.917-4.16 0-4.592-1.161-4.592-3.917v-7.617h2.754v7.563c0 1.297.676 1.323 1.838 1.323 1.16 0 1.566-.108 1.566-1.458v-7.429h2.756v.001zM163.881 102.132h-2.754V90.679h4.672l2.971 8.778h.109l-.162-8.778h2.756v11.453h-4.702l-2.945-8.806h-.107l.162 8.806zM177.738 90.679h-5.24v11.453h5.619c2.889 0 3.781-1.485 3.781-4.619v-2.404c0-3.242-1.269-4.43-4.16-4.43zm1.324 6.834c0 1.216-.379 1.944-1.406 1.944h-2.402v-6.131h2.402c.973 0 1.406.324 1.406 1.783v2.404z"/><path d="M42.651 83.655v25.419h147.271V83.655H42.651zm145.65 23.663H44.244v-21.88h144.057v21.88z"/></g></svg>
